<svg id="Layer_1" enable-background="new 0 0 512 512" height="512" viewBox="0 0 512 512" width="512" xmlns="http://www.w3.org/2000/svg"><g><path d="m235 80h-219c-8.837 0-16 7.163-16 16v171c0 2.761 2.239 5 5 5h230c2.761 0 5-2.239 5-5v-182c0-2.761-2.239-5-5-5zm-91 32c8.84 0 16 7.16 16 16s-7.16 16-16 16-16-7.16-16-16 7.16-16 16-16zm-48 0c8.84 0 16 7.16 16 16s-7.16 16-16 16-16-7.16-16-16 7.16-16 16-16zm-48 0c8.84 0 16 7.16 16 16s-7.16 16-16 16-16-7.16-16-16 7.16-16 16-16zm0 128c-8.84 0-16-7.16-16-16s7.16-16 16-16 16 7.16 16 16-7.16 16-16 16zm8-64c0-8.84 7.16-16 16-16s16 7.16 16 16-7.16 16-16 16-16-7.16-16-16zm40 64c-8.84 0-16-7.16-16-16s7.16-16 16-16 16 7.16 16 16-7.16 16-16 16zm8-64c0-8.84 7.16-16 16-16s16 7.16 16 16-7.16 16-16 16-16-7.16-16-16zm40 64c-8.84 0-16-7.16-16-16s7.16-16 16-16 16 7.16 16 16-7.16 16-16 16zm8-64c0-8.84 7.16-16 16-16s16 7.16 16 16-7.16 16-16 16-16-7.16-16-16zm40 64c-8.84 0-16-7.16-16-16s7.16-16 16-16 16 7.16 16 16-7.16 16-16 16zm0-96c-8.84 0-16-7.16-16-16s7.16-16 16-16 16 7.16 16 16-7.16 16-16 16z"/><path d="m496 80h-219c-2.761 0-5 2.239-5 5v27 11c0 2.761 2.239 5 5 5h230c2.761 0 5-2.239 5-5v-27c0-8.837-7.163-16-16-16z"/><path d="m272 176v19c0 2.761 2.239 5 5 5h230c2.761 0 5-2.239 5-5v-30c0-2.761-2.239-5-5-5h-230c-2.761 0-5 2.239-5 5z"/><path d="m272 267c0 2.761 2.239 5 5 5h230c2.761 0 5-2.239 5-5v-30c0-2.761-2.239-5-5-5h-230c-2.761 0-5 2.239-5 5z"/><path d="m0 309v38c0 2.761 2.239 5 5 5h502c2.761 0 5-2.239 5-5v-38c0-2.761-2.239-5-5-5h-502c-2.761 0-5 2.239-5 5z"/><path d="m0 389v27c0 8.837 7.163 16 16 16h480c8.837 0 16-7.163 16-16v-27c0-2.761-2.239-5-5-5h-502c-2.761 0-5 2.239-5 5z"/></g></svg>